:SAMPLES-PER-SECOND 30
:FULLY-SPECIFIED
:DEGREES
368
root  57.962 38.5937 -4.92859 -154.188 -88.9812 150.278
RightUpLeg  14.0385 -18.6284 -4.73604
RightLeg  18.4943 0.324792 2.65441
RightFoot  -20.9489 0.0687493 2.43747
RightToes  -4.65663e-010 0 -3.6325e-017
Spine  7.05856 0.513662 5.4448
Spine1  10.5182 1.36758 -1.18525
HEad  12.84 1.66083 -2.86005
LeftShoulder1  8.3799 -12.4732 -45.7313
LeftArm  -6.69487 12.698 -23.4258
LeftForeArm  38.3364 -9.27166 -6.0116
LeftHand  -0.244104 0.0205437 5.32207
RightShoulder  4.03463 7.19412 31.7665
RightArm  -6.47059 -1.97119 28.9836
RightForeArm  -4.40224 31.2826 7.10307
RightHand  -1.93721 4.95717 -21.7694
LeftUpLeg  -16.4413 8.95386 -7.82317
LeftLeg  7.50335 21.0348 -3.06904
LeftFoot  2.53775 -0.924963 7.47079
LeftToes  -5.82109e-011 -4.83791e-012 -1.00937e-011
369
root  56.5686 38.373 -5.17283 -118.25 -88.6271 113.72
RightUpLeg  15.0251 -22.5571 -7.55352
RightLeg  23.6911 5.97368 2.47309
RightFoot  -20.7862 0.395675 6.58129
RightToes  -4.65663e-010 0 -3.6325e-017
Spine  7.29595 1.14109 3.49297
Spine1  10.4717 1.97706 -1.145
HEad  13.3445 0.525527 -1.48996
LeftShoulder1  8.25625 -12.232 -45.7466
LeftArm  -7.25196 14.0966 -22.4398
LeftForeArm  38.1998 -8.31666 -5.83497
LeftHand  -0.244104 0.0205437 5.32207
RightShoulder  4.25415 7.502 32.7104
RightArm  -5.64096 -3.80171 28.7985
RightForeArm  -4.74713 30.4082 6.89833
RightHand  -2.09338 5.64993 -22.0528
LeftUpLeg  -16.7771 14.1532 -11.3459
LeftLeg  12.4657 14.5949 0.641318
LeftFoot  1.45786 -1.58717 14.0392
LeftToes  -5.82109e-011 -4.83791e-012 -1.00937e-011
370
root  55.3022 38.2789 -5.37638 -93.3829 -87.5159 88.3757
RightUpLeg  12.3164 -19.3563 -8.71146
RightLeg  32.6389 5.26441 3.36752
RightFoot  -16.1413 0.361691 11.728
RightToes  -4.65663e-010 0 -3.6325e-017
Spine  8.1989 1.39326 1.18992
Spine1  10.05 2.15232 -1.21428
HEad  13.8862 -0.0086556 -0.632151
LeftShoulder1  8.20452 -12.0522 -45.9918
LeftArm  -7.73441 15.2653 -21.4845
LeftForeArm  37.5257 -7.93429 -5.59564
LeftHand  -0.244104 0.0205437 5.32207
RightShoulder  4.43545 7.72953 33.5409
RightArm  -4.57249 -5.07047 29.801
RightForeArm  -3.75082 28.3039 6.3221
RightHand  -2.12134 5.92518 -21.8132
LeftUpLeg  -16.9524 17.8377 -13.9716
LeftLeg  16.7263 10.3037 3.43417
LeftFoot  -1.20307 -1.39894 15.6379
LeftToes  -5.82109e-011 -4.83791e-012 -1.00937e-011
371
root  54.1912 38.278 -5.52967 -84.1975 -86.2368 78.9783
RightUpLeg  6.44731 -15.9613 -9.54801
RightLeg  44.3474 4.72996 4.64608
RightFoot  -5.80105 -0.729148 14.5367
RightToes  -4.65663e-010 0 -3.6325e-017
Spine  9.43197 1.37064 -0.566746
Spine1  9.83561 2.11733 -1.7151
HEad  13.7902 -0.0584303 -0.372122
LeftShoulder1  8.22875 -12.055 -46.1234
LeftArm  -8.18222 15.9176 -21.2038
LeftForeArm  36.7118 -8.01756 -5.4047
LeftHand  -0.244104 0.0205437 5.32207
RightShoulder  4.51639 7.81909 33.9394
RightArm  -3.52837 -6.18194 31.7635
RightForeArm  -2.66123 26.2553 5.77834
RightHand  -1.88398 5.1337 -20.8388
LeftUpLeg  -16.0911 18.2752 -14.5914
LeftLeg  19.4532 10.0114 4.28568
LeftFoot  -4.25368 -0.811646 13.4173
LeftToes  -5.82109e-011 -4.83791e-012 -1.00937e-011
372
root  53.1933 38.2842 -5.64383 -82.2905 -85.133 76.9543
RightUpLeg  -0.702595 -12.3017 -10.0542
RightLeg  55.156 3.87181 5.5264
RightFoot  4.607 -1.96353 14.2582
RightToes  -4.65663e-010 0 -3.6325e-017
Spine  10.8105 1.38107 -1.96298
Spine1  10.0426 2.0318 -2.28242
HEad  12.9518 0.130326 -0.604043
LeftShoulder1  8.27711 -12.1382 -46.1489
LeftArm  -8.6077 15.9777 -21.7457
LeftForeArm  36.2462 -8.4991 -5.28865
LeftHand  -0.244104 0.0205437 5.32207
RightShoulder  4.59387 7.94968 34.1583
RightArm  -1.77274 -7.38669 33.5485
RightForeArm  -2.26099 25.112 5.49629
RightHand  -1.53446 3.8973 -19.2727
LeftUpLeg  -14.6333 19.2365 -14.8852
LeftLeg  20.6816 8.99516 4.06202
LeftFoot  -6.69751 -0.419376 11.3784
LeftToes  -5.82109e-011 -4.83791e-012 -1.00937e-011
373
root  52.2079 38.3742 -5.73042 -77.1685 -84.614 71.7387
RightUpLeg  -7.10096 -9.39148 -10.0826
RightLeg  62.3765 2.33497 4.27038
RightFoot  8.65874 -2.1575 12.5007
RightToes  -4.65663e-010 0 -3.6325e-017
Spine  12.1883 1.23192 -2.80211
Spine1  10.2532 1.60944 -2.21634
HEad  12.0129 0.364578 -1.1445
LeftShoulder1  8.29699 -12.1329 -46.2793
LeftArm  -8.92725 15.427 -22.7909
LeftForeArm  36.2445 -9.31228 -5.22917
LeftHand  -0.244104 0.0205437 5.32207
RightShoulder  4.70577 8.13588 34.475
RightArm  0.982132 -8.551 34.6219
RightForeArm  -1.6106 24.7436 5.38046
RightHand  -1.33825 3.32959 -17.9464
LeftUpLeg  -12.6987 19.1595 -14.4983
LeftLeg  20.8852 8.45377 3.67635
LeftFoot  -8.30833 -0.235204 10.7789
LeftToes  -5.82109e-011 -4.83791e-012 -1.00937e-011
374
root  51.2056 38.6565 -5.79183 -61.9019 -84.524 56.5546
RightUpLeg  -12.2495 -7.89243 -9.40301
RightLeg  64.9047 0.441087 0.463137
RightFoot  7.48008 -1.64105 10.1562
RightToes  -4.65663e-010 0 -3.6325e-017
Spine  13.5114 0.637829 -2.70073
Spine1  10.1914 0.726761 -1.43439
HEad  11.3402 0.387401 -1.64867
LeftShoulder1  8.30566 -12.086 -46.4717
LeftArm  -8.82807 14.3225 -24.0927
LeftForeArm  36.629 -10.4531 -5.2227
LeftHand  -0.244104 0.0205437 5.32207
RightShoulder  4.75699 8.18356 34.7448
RightArm  3.57418 -9.79764 35.5093
RightForeArm  0.044196 24.8077 5.31035
RightHand  -1.36142 3.54708 -17.8037
LeftUpLeg  -10.1489 16.5161 -13.0692
LeftLeg  19.7799 9.82945 3.37713
LeftFoot  -9.12044 -0.140834 10.054
LeftToes  -5.82109e-011 -4.83791e-012 -1.00937e-011
375
root  50.2274 38.9592 -5.84951 -43.0066 -84.1242 37.9012
RightUpLeg  -16.5275 -6.95886 -8.31937
RightLeg  63.36 -1.38976 -3.56442
RightFoot  5.00529 -1.04275 7.49137
RightToes  -4.65663e-010 0 -3.6325e-017
Spine  14.9238 -0.00930625 -2.15572
Spine1  9.95645 -0.20615 -0.419711
HEad  10.648 0.111053 -1.82093
LeftShoulder1  8.34621 -12.1489 -46.5123
LeftArm  -7.88267 12.908 -25.5981
LeftForeArm  37.2321 -12.0677 -5.20699
LeftHand  -0.244104 0.0205437 5.32207
RightShoulder  4.71564 8.08125 34.7467
RightArm  4.87151 -11.545 36.6801
RightForeArm  1.44627 25.1681 5.31906
RightHand  -1.49002 3.86687 -18.7917
LeftUpLeg  -7.69928 13.3819 -11.3272
LeftLeg  18.3686 11.3243 2.87735
LeftFoot  -9.89202 -0.0491659 8.5645
LeftToes  -5.82109e-011 -4.83791e-012 -1.00937e-011
376
root  49.2576 39.1972 -5.91307 -30.3555 -83.4386 25.4572
RightUpLeg  -19.9123 -5.71773 -7.34291
RightLeg  58.6598 -3.19748 -6.11365
RightFoot  3.35591 -0.628956 5.06151
RightToes  -4.65663e-010 0 -3.6325e-017
Spine  16.5183 -0.33802 -1.8065
Spine1  9.64767 -0.854891 0.673188
HEad  9.64463 -0.333316 -1.69606
LeftShoulder1  8.42168 -12.3085 -46.4586
LeftArm  -5.85371 11.4725 -27.1144
LeftForeArm  37.4139 -14.4179 -4.95869
LeftHand  -0.244104 0.0205437 5.32207
RightShoulder  4.68339 8.05332 34.569
RightArm  5.26707 -13.7819 37.8989
RightForeArm  1.15184 25.6557 5.44454
RightHand  -1.60251 4.02944 -19.8343
LeftUpLeg  -5.24361 10.6245 -9.62226
LeftLeg  16.8065 12.5028 1.79632
LeftFoot  -10.6588 0.0211912 7.31296
LeftToes  -5.82109e-011 -4.83791e-012 -1.00937e-011
377
root  48.265 39.3665 -5.97811 -23.7078 -82.659 19.0697
RightUpLeg  -22.1568 -4.7613 -6.7494
RightLeg  51.2614 -5.0493 -7.07984
RightFoot  1.88184 -0.463908 4.12662
RightToes  -4.65663e-010 0 -3.6325e-017
Spine  18.0621 -0.484389 -1.93442
Spine1  9.38174 -1.39943 1.87889
HEad  8.41989 -0.650617 -1.57732
LeftShoulder1  8.51471 -12.4494 -46.5602
LeftArm  -3.08752 10.0946 -28.308
LeftForeArm  36.4776 -17.5558 -4.274
LeftHand  -0.244104 0.0205437 5.32207
RightShoulder  4.71295 8.17108 34.4154
RightArm  5.91412 -15.9293 38.8639
RightForeArm  -0.355381 26.0149 5.60483
RightHand  -1.66245 4.21208 -20.1767
LeftUpLeg  -2.96836 8.0725 -8.338
LeftLeg  15.3081 13.7242 0.612187
LeftFoot  -11.4275 0.0739055 6.68418
LeftToes  -5.82109e-011 -4.83791e-012 -1.00937e-011
378
root  47.2096 39.425 -6.0413 -20.8127 -81.5751 16.7711
RightUpLeg  -23.495 -5.37026 -6.43942
RightLeg  41.7151 -6.14293 -6.15643
RightFoot  0.457203 -0.463382 4.51155
RightToes  -4.65663e-010 0 -3.6325e-017
Spine  19.1011 -0.719512 -2.53776
Spine1  9.31375 -2.05955 2.92793
HEad  7.07007 -0.827016 -1.53728
LeftShoulder1  8.61469 -12.5638 -46.7776
LeftArm  -0.84665 8.62524 -29.1131
LeftForeArm  35.1499 -20.9188 -3.4723
LeftHand  -0.244104 0.0205437 5.32207
RightShoulder  4.72647 8.2402 34.2944
RightArm  7.21693 -17.6045 39.7485
RightForeArm  -1.52956 26.1686 5.70096
RightHand  -1.65971 4.30075 -19.9658
LeftUpLeg  -1.45317 6.12982 -7.80698
LeftLeg  14.6849 14.4477 -0.0308129
LeftFoot  -12.7394 0.147928 5.92207
LeftToes  -5.82109e-011 -4.83791e-012 -1.00937e-011
